<svg xmlns="http://www.w3.org/2000/svg" viewBox="0 0 512 512">
  <rect width="512" height="512" rx="96" ry="96" fill="#ffffff"/>
  <!-- Syne Bold "A" - geometric, wide, with crossbar -->
  <path d="
    M 86,360
    L 152,152
    Q 156,140 168,140
    L 178,140
    Q 190,140 194,152
    L 260,360
    L 224,360
    L 208,312
    L 138,312
    L 122,360
    Z
    M 148,280
    L 198,280
    L 173,200
    Z
  " fill="#1A1814"/>
  <!-- Syne Bold "R" - geometric with angled leg -->
  <path d="
    M 280,360
    L 280,152
    Q 280,140 292,140
    L 362,140
    Q 402,140 420,160
    Q 438,180 438,210
    Q 438,240 422,258
    Q 408,274 384,278
    L 440,360
    L 402,360
    L 350,282
    L 316,282
    L 316,360
    Z
    M 316,252
    L 358,252
    Q 380,252 392,240
    Q 404,228 404,210
    Q 404,192 392,180
    Q 380,170 358,170
    L 316,170
    Z
  " fill="#1A1814"/>
</svg>
