<?xml version="1.0" encoding="utf-8"?>
<!-- Generator: Adobe Illustrator 14.0.0, SVG Export Plug-In . SVG Version: 6.00 Build 43363)  -->
<!DOCTYPE svg PUBLIC "-//W3C//DTD SVG 1.1//EN" "http://www.w3.org/Graphics/SVG/1.1/DTD/svg11.dtd">
<svg version="1.1" id="Ebene_1" xmlns="http://www.w3.org/2000/svg" xmlns:xlink="http://www.w3.org/1999/xlink" x="0px" y="0px"
	 width="1024px" height="241px" viewBox="0 0 1024 241" enable-background="new 0 0 1024 241" xml:space="preserve">
<path fill="#8F9192" d="M378.154,212.226v28.064h-6.335l-2.064-5.526c-4.051,2.653-9.648,6.264-20.034,6.264
	c-13.699,0-30.265-6.71-30.265-27.987c0-14.294,8.613-28.213,29.974-28.213c12.295,0,25.774,4.568,28.35,18.042h-10.678
	c-1.255-2.719-4.122-9.054-16.417-9.054c-16.792,0-20.771,11.338-20.771,18.779c0,12.67,8.542,19.147,19.879,19.147
	c10.314,0,16.055-3.604,18.565-11.123h-18.785v-8.394H378.154"/>
<path fill="#8F9192" d="M433.682,209.941c8.542,0,12.89-1.255,12.89-7.584c0-6.258-4.348-7.513-12.89-7.513h-20.183v15.097H433.682
	 M403.042,186.16h32.187c12.67,0,21.801,2.867,21.801,15.977c0,9.869-7.066,15.317-14.948,15.764l16.423,21.801h-12.89
	l-15.543-21.063h-16.572v21.063h-10.458V186.16z"/>
<path fill="#8F9192" d="M533.034,212.743c0-12.891-9.208-18.928-21.429-18.928c-12.224,0-21.438,6.037-21.438,18.928
	c0,15.168,11.421,19.29,21.438,19.29C521.613,232.033,533.034,227.911,533.034,212.743 M511.605,184.827
	c23.565,0,31.88,13.848,31.88,28.505c0,11.117-6.549,27.695-31.88,27.695c-25.334,0-31.895-16.578-31.895-27.695
	C479.71,198.675,488.038,184.827,511.605,184.827z"/>
<path fill="#8F9192" d="M624.204,216.717c0,17.238-10.969,24.311-28.427,24.311c-17.446,0-28.428-7.072-28.428-24.311V186.16h10.464
	v29.818c0,8.84,3.164,16.055,17.964,16.055c14.812,0,17.97-7.215,17.97-16.055V186.16h10.457V216.717"/>
<path fill="#8F9192" d="M683.646,209.941c5.96,0,11.194-0.518,11.194-7.436c0-6.853-5.234-7.364-11.194-7.364h-21.658v14.8H683.646
	 M651.531,186.16h29.831c9.054,0,23.936,0,23.936,16.417c0,16.353-14.882,16.353-23.936,16.353h-19.374v20.771h-10.457V186.16z"/>
<path fill="#E2001A" d="M161.931,31.687h-36.029v65.646l0.012,0.101c1.963,20.936,13.604,32.639,34.595,34.768l0.107,0.012h41.924
	v-29.741c-21.956,0-25.364,0-31.717,0c-5.603-0.536-8.351-3.284-8.893-8.887c0-0.262,0-28.576,0-32.335V31.687"/>
<path fill="#E2001A" d="M285.407,68.579c-0.042,0-30.521,0.018-30.521,0.018c-3.159,0-5.734-2.421-5.734-5.377
	c0-2.968,2.576-5.377,5.734-5.377l53.743-0.006V31.401l-62.458,0.054c-18.131,0-30.753,13.068-30.753,31.788
	c0,17.792,11.48,28.415,30.711,28.415c0.024,0,30.509-0.018,30.509-0.018c3.159,0,5.734,2.409,5.734,5.377
	c0,2.968-2.576,5.383-5.734,5.383h-59.858v29.813l68.626-0.053c18.077,0,30.699-13.075,30.699-31.794
	C316.106,81.653,303.484,68.579,285.407,68.579"/>
<path fill="#E2001A" d="M72.028,84.711c-3.724-3.486-3.724-9.208,0-12.706l42.227-40.276H69.744L42.643,57.152
	c-2.665,2.499-4.717,5.348-6.24,8.375V31.83H0.374v100.485h36.029v-41.05c1.522,3.034,3.575,5.877,6.24,8.387l34.738,32.591
	l44.589-0.006L72.028,84.711"/>
<path fill="#8F9192" d="M810.805,0.565h-36.565V96.81l0.013,0.095c1.986,21.25,13.794,33.121,35.106,35.292l0.107,0.012h39.075
	v-29.307c0,0-28.445,0-28.719,0c-5.687-0.542-8.477-3.331-9.018-9.018c0-0.262,0-29.884,0-33.697c3.848,0,37.736,0,37.736,0V30.89
	c0,0-33.889,0-37.736,0C810.805,27.148,810.805,0.565,810.805,0.565"/>
<rect x="862.941" y="30.89" fill="#8F9192" width="36.559" height="101.312"/>
<path fill="#8F9192" d="M507.537,30.89h-0.102h-17.149c-11.361,0.148-20.754,4.794-27.963,13.741
	c-7.263-8.958-16.631-13.592-27.933-13.741h-20.718c-5.942,0-11.391,1.427-16.625,4.271c0-0.976,0-4.271,0-4.271h-38.302v101.312
	h38.302c0,0,0-62.868,0-63.147c0.553-5.591,3.331-8.328,9.023-8.875c0.268,0,17.768,0,18.047,0c5.681,0.547,8.464,3.284,9.023,8.875
	c0,0.279,0,63.147,0,63.147h36.571c0,0,0-62.868,0-63.147c0.547-5.591,3.337-8.328,9.023-8.875c0.268,0,18.089,0,18.357,0
	c5.681,0.547,8.47,3.284,9.018,8.875c0,0.279,0,63.147,0,63.147h36.561V66.116l-0.012-0.095
	C540.66,44.708,528.847,32.889,507.537,30.89"/>
<path fill="#8F9192" d="M725.82,30.89h-0.102c-21.313,1.999-33.12,13.818-35.119,35.131l-0.012,0.095v66.086h36.559
	c0,0,0-62.868,0-63.147c0.554-5.585,3.337-8.328,9.023-8.875c0.274,0,23.669,0,23.669,0V30.89H725.82"/>
<path fill="#8F9192" d="M1024.362,66.021c-2.005-21.313-13.872-33.132-35.28-35.131h-0.095h-75.086v101.312h36.559
	c0,0,0-67.942,0-72.022c3.724,0,28.07,0,28.332,0c5.544,0.547,8.327,3.301,9.029,8.899c0,0.333,0,63.124,0,63.124h36.553V66.116
	L1024.362,66.021"/>
<path fill="#8F9192" d="M605.794,30.89c-14.312,0.327-26.291,5.33-35.654,14.859c-9.529,9.518-14.52,21.551-14.847,35.744
	l-0.006,0.042l0.006,0.06c0.327,14.193,5.317,26.232,14.847,35.758c9.363,9.354,21.331,14.357,35.583,14.85h25.459v-29.301
	c0,0-15.978,0-16.245,0c-9.559-0.952-15.805-4.771-19.105-11.659c-1.148-2.397-2.517-6.032-2.552-9.726c0-0.065,0-0.137,0-0.196
	c0-3.224,0.797-6.508,2.337-9.542c1-1.975,2.332-3.807,3.962-5.437c4.099-4.093,9.202-6.157,15.216-6.157c0,0,21.164,0,24.835,0
	c0,4.081,0,72.017,0,72.017h36.564V30.89H605.794"/>
</svg>
